<svg version="1.2" xmlns="http://www.w3.org/2000/svg" viewBox="0 0 1560 1531" width="1560" height="1531">
	<title>logo</title>
	<style>
		.s0 { fill: #ec6602 } 
	</style>
	<g id="Layer">
		<g id="Layer">
			<path id="Layer" class="s0" d="m1232 864.8c-6.5-9.7-12-20.1-16.5-30.9-4.5-10.9-7.9-22.1-10.2-33.6-2.3-11.6-3.5-23.3-3.4-35 0-85.4 60.3-158.9 144-175.5 83.7-16.7 167.6 28.1 200.3 107 32.7 78.9 5.1 169.8-65.9 217.3-71 47.5-165.6 38.2-226-22.2-8.3-8.3-15.7-17.3-22.3-27.1zm-295.2 306.6c-5-7.5-9.2-15.4-12.7-23.8-3.4-8.3-6.1-17-7.8-25.8-1.8-8.9-2.6-17.9-2.6-26.9-0.1-65.8 46.4-122.4 110.9-135.2 64.5-12.9 129.1 21.7 154.2 82.4 25.2 60.8 3.9 130.9-50.8 167.4-54.6 36.5-127.5 29.3-174-17.2-6.4-6.4-12.1-13.4-17.2-20.9zm0.4-658.8c-5-7.5-9.3-15.5-12.7-23.8-3.5-8.3-6.1-17-7.9-25.8-1.7-8.9-2.6-17.9-2.6-26.9 0-65.8 46.4-122.4 110.9-135.2 64.5-12.9 129.1 21.7 154.3 82.4 25.1 60.8 3.9 130.8-50.8 167.4-54.7 36.5-127.6 29.3-174.1-17.2-6.3-6.4-12.1-13.4-17.1-20.9zm-303.5 970.8c-3.9-5.8-7.1-11.9-9.8-18.3-2.7-6.5-4.7-13.1-6-19.9-1.4-6.8-2-13.8-2-20.7 0-50.6 35.7-94.1 85.3-104 49.6-9.8 99.2 16.7 118.6 63.4 19.3 46.8 2.9 100.6-39.1 128.7-42 28.1-98.1 22.6-133.8-13.2-4.9-4.9-9.3-10.3-13.2-16zm0.4-658.9c-3.9-5.7-7.2-11.9-9.8-18.3-2.7-6.4-4.7-13.1-6.1-19.9-1.3-6.8-2-13.7-2-20.6 0-50.6 35.7-94.1 85.3-103.9 49.5-9.9 99.2 16.6 118.5 63.3 19.3 46.7 3 100.6-39 128.6-42 28.1-98 22.6-133.7-13.1-5-4.9-9.4-10.3-13.2-16.1zm0.3-658.8c-3.8-5.7-7.1-11.9-9.8-18.3-2.6-6.4-4.6-13.1-6-19.9-1.3-6.8-2-13.7-2-20.7 0-50.5 35.7-94 85.3-103.9 49.6-9.9 99.2 16.7 118.6 63.4 19.3 46.7 3 100.6-39.1 128.7-42 28.1-98 22.5-133.8-13.2-4.9-4.9-9.3-10.3-13.2-16.1zm-309.6 974.9c-3-4.5-5.5-9.2-7.5-14.1-2.1-5-3.6-10.1-4.7-15.3-1-5.3-1.5-10.6-1.5-15.9 0-38.9 27.5-72.4 65.6-79.9 38.1-7.6 76.3 12.8 91.2 48.7 14.8 35.9 2.3 77.3-30 98.9-32.4 21.6-75.4 17.4-102.9-10.1-3.8-3.8-7.2-7.9-10.2-12.3zm0.4-658.9c-2.9-4.4-5.5-9.1-7.5-14.1-2-4.9-3.6-10-4.6-15.2-1.1-5.3-1.6-10.6-1.6-16 0-38.8 27.5-72.3 65.6-79.9 38.1-7.5 76.3 12.9 91.2 48.8 14.9 35.9 2.3 77.3-30 98.9-32.4 21.6-75.4 17.4-102.9-10.1-3.8-3.8-7.2-7.9-10.2-12.4zm-314 319.2q-3.4-5.2-5.8-10.9-2.3-5.7-3.5-11.7-1.2-6.1-1.2-12.3c0-29.9 21.1-55.6 50.4-61.4 29.3-5.9 58.7 9.8 70.2 37.4 11.4 27.7 1.7 59.5-23.1 76.1-24.9 16.7-58 13.4-79.1-7.7q-4.4-4.4-7.9-9.5z"/>
		</g>
	</g>
</svg>